<svg width="461" height="94" viewBox="0 0 461 94" fill="none" xmlns="http://www.w3.org/2000/svg">
<g clip-path="url(#clip0)">
<path d="M11.96 30.05C14.58 28.84 17.18 28.26 19.93 28.26C22.71 28.26 25.32 28.82 27.9 29.95C30.41 31.1 32.56 32.61 34.3 34.45C36.13 36.39 37.62 38.7 38.61 41.18C39.48 43.15 40 45.39 40.15 47.84L40.2 48.71H45.71L45.66 47.73C45.49 44.65 44.85 41.74 43.76 39.11C42.56 36.11 40.76 33.32 38.27 30.59C36.09 28.11 33.54 26.3 30.05 24.74C27.25 23.34 23.94 22.66 19.93 22.66C14.57 22.66 9.8 24.2 5.4 27.35V2.8C5.4 1.05 4.39 0 2.7 0C0.96 0 0 1 0 2.8V73.06C0 74.87 0.96 75.87 2.7 75.87C4.39 75.87 5.4 74.82 5.4 73.06V71.43C7.29 72.72 9.28 73.78 11.45 74.65C14.12 75.68 16.89 76.17 19.93 76.17C23.47 76.17 26.97 75.42 30.02 74C33.24 72.56 35.93 70.68 38.25 68.26C40.51 65.9 42.26 63.19 43.76 59.74L44.38 58.28H38.33L38.08 58.81C37.11 60.87 35.8 62.79 34.3 64.38C32.56 66.21 30.41 67.72 27.92 68.87C25.33 70.01 22.72 70.57 19.94 70.57C17.2 70.57 14.59 69.98 11.97 68.78C9.54 67.66 7.33 66.09 5.41 64.13V34.69C7.17 32.81 9.38 31.25 11.96 30.05Z" fill="white"/>
<path d="M97.13 58.85C95.99 61.4 94.67 63.45 93.09 65.11C91.11 67.09 88.99 68.56 86.54 69.63C84.31 70.74 81.68 71.31 78.71 71.31C75.76 71.31 73.08 70.74 70.73 69.61C68.33 68.55 66.2 67.08 64.24 65.12C62.57 63.36 61.17 61.24 60.08 58.84L59.83 58.3H53.87L54.32 59.54C54.43 59.85 54.55 60.16 54.67 60.48C56.06 63.79 57.9 66.62 60.29 69.12C62.78 71.72 65.47 73.6 68.53 74.86C71.89 76.32 75.22 77.02 78.71 77.02C82.19 77.02 85.59 76.29 88.76 74.87C91.9 73.61 94.69 71.67 97.02 69.12C99.41 66.62 101.25 63.8 102.64 60.47C102.76 60.16 102.87 59.85 102.99 59.54L103.44 58.3H97.37L97.13 58.85Z" fill="white"/>
<path d="M102.64 39.51C101.25 36.2 99.41 33.37 97.03 30.88C94.68 28.42 91.91 26.49 88.8 25.14C85.59 23.7 82.2 22.97 78.71 22.97C75.22 22.97 71.89 23.68 68.51 25.14C65.47 26.5 62.79 28.37 60.29 30.88C57.9 33.38 56.07 36.2 54.67 39.53C53.62 42.16 52.96 44.91 52.73 47.71L52.64 48.71H58.25L58.33 47.88C58.54 45.82 59.04 43.73 59.82 41.71C60.93 39.18 62.46 36.86 64.22 35C66.19 33.03 68.32 31.55 70.75 30.48C73.08 29.36 75.75 28.8 78.7 28.8C81.67 28.8 84.31 29.36 86.58 30.5C88.98 31.56 91.11 33.03 93.07 34.99C94.75 36.76 96.2 39.02 97.38 41.71C98.22 43.7 98.76 45.78 98.97 47.89L99.05 48.72H104.66L104.57 47.72C104.36 44.9 103.7 42.15 102.64 39.51Z" fill="white"/>
<path d="M160.9 39.51C159.51 36.2 157.67 33.37 155.29 30.88C152.94 28.42 150.17 26.49 147.06 25.14C143.85 23.7 140.46 22.97 136.97 22.97C133.48 22.97 130.15 23.68 126.77 25.14C123.73 26.5 121.05 28.37 118.54 30.88C116.15 33.38 114.32 36.2 112.92 39.53C111.87 42.16 111.21 44.91 110.98 47.71L110.89 48.71H116.5L116.58 47.88C116.79 45.82 117.29 43.73 118.07 41.71C119.18 39.18 120.71 36.86 122.47 35C124.44 33.03 126.57 31.55 129 30.48C131.33 29.36 134 28.8 136.95 28.8C139.92 28.8 142.56 29.36 144.83 30.5C147.23 31.56 149.36 33.03 151.32 34.99C153 36.76 154.45 39.02 155.63 41.71C156.47 43.7 157.01 45.78 157.22 47.89L157.3 48.72H162.91L162.82 47.72C162.62 44.9 161.96 42.15 160.9 39.51Z" fill="white"/>
<path d="M155.39 58.85C154.25 61.4 152.93 63.45 151.35 65.11C149.37 67.09 147.25 68.56 144.8 69.63C142.57 70.74 139.94 71.31 136.97 71.31C134.02 71.31 131.34 70.74 128.99 69.61C126.59 68.55 124.46 67.08 122.5 65.12C120.83 63.36 119.43 61.24 118.34 58.84L118.09 58.3H112.13L112.58 59.54C112.69 59.85 112.81 60.16 112.93 60.48C114.32 63.79 116.16 66.62 118.54 69.12C121.03 71.72 123.73 73.6 126.78 74.86C130.14 76.32 133.47 77.02 136.96 77.02C140.44 77.02 143.84 76.29 147.01 74.87C150.15 73.61 152.94 71.67 155.27 69.12C157.66 66.62 159.5 63.8 160.89 60.47C161.01 60.16 161.13 59.85 161.24 59.54L161.69 58.3H155.62L155.39 58.85Z" fill="white"/>
<path d="M172.71 74.32C172.71 76.14 173.72 77.23 175.41 77.23C177.19 77.23 178.21 76.17 178.21 74.32V58.3H172.7V74.32H172.71Z" fill="white"/>
<path d="M195.36 23.59C191.56 23.59 188.19 24.3 185.07 25.75C182.44 26.89 180.18 28.35 178.22 30.17V25.87C178.22 25.13 177.94 24.4 177.47 23.91C177 23.32 176.23 22.96 175.41 22.96C174.62 22.96 173.94 23.29 173.45 23.91C172.98 24.41 172.7 25.13 172.7 25.87V48.7H178.21V38.98C180.2 35.8 182.57 33.49 185.47 31.9C188.51 30.18 191.83 29.31 195.35 29.31C196.22 29.31 196.86 28.91 197.26 28.6L197.45 28.41C197.78 27.97 198.16 27.34 198.16 26.39C198.16 25.63 197.86 24.88 197.37 24.38C196.67 23.68 195.93 23.59 195.36 23.59Z" fill="white"/>
<path d="M245.98 36.66C244.32 34 242.44 31.84 240.26 30.08C238.12 28.26 235.64 26.84 232.89 25.85C230.04 24.75 227.24 24.22 224.31 24.22C220.83 24.22 217.43 24.95 214.23 26.38C211.26 27.65 208.52 29.59 206.1 32.13C203.74 34.6 201.91 37.38 200.48 40.67C199.6 42.87 199.01 45.23 198.73 47.67L198.61 48.7H246.65C247.4 48.7 248.09 48.34 248.61 47.67C249.08 47.17 249.36 46.42 249.36 45.6V45.29L249.34 45.1C248.73 42.16 247.6 39.32 245.98 36.66ZM242.94 43.01H205.48C206.1 41.48 206.9 39.97 207.94 38.42C209.37 36.55 210.77 35.12 212.31 33.94C214.07 32.7 215.96 31.72 217.97 31.01C219.82 30.27 221.83 29.93 224.31 29.93C228.71 29.93 232.56 31.2 236.06 33.8C239.27 36.35 241.53 39.37 242.94 43.01Z" fill="white"/>
<path d="M244.98 61.75C244.36 61.3 243.68 61.15 242.92 61.3C242.12 61.46 241.47 61.94 241.17 62.55C239.22 65.62 236.77 68.01 233.87 69.65C230.91 71.33 227.78 72.14 224.3 72.14C221.37 72.14 218.76 71.62 216.33 70.55C213.78 69.38 211.63 67.84 209.93 65.95C207.98 63.89 206.57 61.7 205.61 59.22L205.23 58.29H199.41L199.79 59.49C200.02 60.21 200.24 60.83 200.47 61.42C201.89 64.69 203.72 67.47 206.08 69.94C208.36 72.32 211.01 74.2 214.2 75.68C217.26 77.05 220.65 77.74 224.29 77.74C228.76 77.74 232.73 76.71 236.44 74.59C240.23 72.42 243.36 69.4 245.76 65.6C246.69 64.09 246.38 62.62 244.98 61.75Z" fill="white"/>
<path d="M276.42 48.7L257.78 23.88C257.11 22.92 256.37 22.63 255.86 22.56C255.39 22.49 254.65 22.53 253.84 23.16L253.51 23.54C253.22 23.91 252.9 24.32 252.76 24.99C252.65 25.65 252.58 26.41 253.14 27.16L269.23 48.7H276.42Z" fill="white"/>
<path d="M299.93 22.85C299.19 22.48 298.54 22.39 297.87 22.56C297.04 22.73 296.39 23.25 296.07 24.01L282.9 48.7H289.32L300.93 26.77C301.32 26.12 301.42 25.39 301.24 24.5C301.07 23.8 300.57 23.17 299.93 22.85Z" fill="white"/>
<path d="M261.46 90L261.38 90.24C261.26 90.86 261.17 91.57 261.45 92.17C261.83 92.99 262.99 93.71 264.07 93.71C264.32 93.71 264.56 93.67 264.79 93.59L264.93 93.53C265.21 93.4 265.95 93.04 266.34 92.11L284.24 58.3H277.68L261.46 90Z" fill="white"/>
<path d="M312.56 1.57001C311.8 1.57001 311.05 1.87001 310.55 2.36001L310.46 2.46001C310.16 2.86001 309.75 3.50001 309.75 4.37001V48.7H315.25V4.37001C315.25 3.80001 315.16 3.06001 314.46 2.36001C313.95 1.84001 313.29 1.57001 312.56 1.57001Z" fill="white"/>
<path d="M333.98 58.3H326.91L339.36 75.05C339.92 75.9 340.84 76.4 341.8 76.4C342.36 76.4 342.85 76.19 343.26 75.99L343.42 75.89C344.76 74.85 345.02 73.49 344.12 72L333.98 58.3Z" fill="white"/>
<path d="M342.3 30.32C342.3 29.45 341.9 28.81 341.59 28.41L341.5 28.31C340.8 27.61 340.05 27.52 339.49 27.52C338.93 27.52 338.18 27.61 337.47 28.33L317.87 48.7H325.77L341.51 32.22C342.03 31.7 342.3 31.05 342.3 30.32Z" fill="white"/>
<path d="M309.76 58.3V74.43C309.76 75.12 310.01 75.84 310.47 76.45L310.55 76.55C311.05 77.05 311.8 77.34 312.56 77.34C313.29 77.34 313.95 77.07 314.47 76.55C315 76.02 315.26 75.33 315.26 74.43V58.3H309.76Z" fill="white"/>
<path d="M400.42 39.51C399.03 36.2 397.19 33.37 394.81 30.88C392.46 28.42 389.69 26.49 386.58 25.14C383.37 23.7 379.98 22.97 376.49 22.97C373 22.97 369.67 23.68 366.29 25.14C363.25 26.5 360.57 28.37 358.06 30.88C355.67 33.38 353.84 36.2 352.44 39.53C351.39 42.16 350.73 44.91 350.5 47.71L350.41 48.71H356.02L356.1 47.88C356.31 45.82 356.81 43.73 357.59 41.71C358.7 39.18 360.23 36.86 361.99 35C363.96 33.03 366.09 31.55 368.52 30.48C370.85 29.36 373.52 28.8 376.47 28.8C379.44 28.8 382.08 29.36 384.35 30.5C386.75 31.56 388.88 33.03 390.84 34.99C392.52 36.76 393.97 39.02 395.15 41.71C395.99 43.7 396.53 45.78 396.74 47.89L396.82 48.72H402.44L402.35 47.72C402.14 44.9 401.48 42.15 400.42 39.51Z" fill="white"/>
<path d="M394.91 58.85C393.77 61.39 392.45 63.45 390.87 65.11C388.89 67.09 386.77 68.56 384.32 69.63C382.09 70.74 379.46 71.31 376.49 71.31C373.54 71.31 370.86 70.74 368.51 69.61C366.11 68.55 363.98 67.08 362.02 65.12C360.35 63.36 358.95 61.24 357.86 58.84L357.61 58.3H352.96L351.66 58.35L352.11 59.59C352.22 59.88 352.32 60.18 352.44 60.48C353.83 63.79 355.67 66.62 358.05 69.12C360.54 71.72 363.24 73.6 366.29 74.86C369.65 76.32 372.98 77.02 376.47 77.02C379.95 77.02 383.35 76.29 386.52 74.87C389.66 73.61 392.45 71.67 394.78 69.12C397.17 66.62 399.01 63.8 400.4 60.47C400.52 60.16 400.64 59.85 400.75 59.54L401.2 58.3H395.13L394.91 58.85Z" fill="white"/>
<path d="M458.69 39.52L458.68 39.51C457.29 36.2 455.45 33.37 453.07 30.88C450.72 28.42 447.95 26.49 444.84 25.14C441.63 23.7 438.23 22.97 434.75 22.97C431.26 22.97 427.93 23.68 424.56 25.14C421.52 26.5 418.84 28.37 416.33 30.88C413.94 33.38 412.11 36.2 410.71 39.53C409.66 42.16 409 44.91 408.77 47.71L408.68 48.71H414.29L414.37 47.88C414.58 45.82 415.08 43.73 415.86 41.71C416.97 39.18 418.5 36.86 420.26 35C422.23 33.03 424.36 31.55 426.79 30.48C429.12 29.36 431.79 28.8 434.74 28.8C437.71 28.8 440.35 29.36 442.62 30.5C445.02 31.56 447.15 33.03 449.11 34.99C450.79 36.76 452.24 39.02 453.42 41.71C454.55 44.38 455.12 47.17 455.12 50.02C455.12 52.86 454.55 55.66 453.42 58.33C452.25 61.09 450.84 63.33 449.13 65.14C447.15 67.12 445.03 68.59 442.58 69.66C440.35 70.77 437.72 71.34 434.75 71.34C431.8 71.34 429.12 70.77 426.77 69.64C424.37 68.58 422.24 67.11 420.28 65.15C418.61 63.39 417.21 61.27 416.12 58.87L415.87 58.33H411.22L409.92 58.39L410.37 59.63C410.48 59.92 410.58 60.21 410.7 60.51C412.09 63.82 413.93 66.65 416.32 69.15C418.81 71.75 421.51 73.63 424.56 74.89C427.92 76.35 431.25 77.05 434.74 77.05C438.22 77.05 441.62 76.32 444.79 74.9C447.93 73.64 450.72 71.7 453.05 69.15C455.44 66.65 457.28 63.83 458.67 60.5C460.03 57.1 460.72 53.58 460.72 50.03C460.72 46.48 460.05 42.92 458.69 39.52Z" fill="white"/>
</g>
<defs>
<clipPath id="clip0">
<rect width="460.74" height="93.71" fill="white"/>
</clipPath>
</defs>
</svg>
